<svg width="800" height="600" xmlns="http://www.w3.org/2000/svg">

 <g>
  <title>Layer 1</title>
  <path id="svg_4" d="m214.925,350.25506l0,-113.0625l0,0c0,-48.56654 26.83493,-87.93751 59.9375,-87.93751l0,0l0,0c15.89641,0 31.14175,9.26482 42.38222,25.7563c11.24046,16.49148 17.55528,38.85873 17.55528,62.18121l0,12.5625l17.12499,0l-34.24998,50.25002l-34.25001,-50.25002l17.125,0l0,-12.5625c0,-20.81423 -11.50069,-37.68749 -25.68749,-37.68749l0,0l0,0c-14.18682,0 -25.6875,16.87327 -25.6875,37.68749l0,113.0625l-34.25001,0z" stroke="#000" fill="#fff"/>
 </g>
</svg>